<svg width="27" height="23" viewBox="0 0 27 23" fill="none" xmlns="http://www.w3.org/2000/svg">
<path d="M18.8995 3.55472C16.3531 3.64502 14.3616 5.77145 14.4522 8.30621C14.5443 10.8396 16.6816 12.821 19.2293 12.7295C21.7757 12.6392 23.7659 10.5128 23.6752 7.97803C23.5845 5.44464 21.4472 3.46453 18.8995 3.55472Z" fill="#F9F7F7"/>
<path d="M8.73946 0C11.2922 0 13.3542 2.05141 13.3542 4.59131C13.3542 7.13121 11.2924 9.18262 8.73946 9.18262C6.18657 9.18262 4.12468 7.13121 4.12468 4.59131C4.12595 2.05027 6.18657 0 8.73946 0Z" fill="#F9F7F7"/>
<path d="M1.27785 18.8504C1.14746 18.8504 1.04903 18.7855 0.950604 18.7206C0.852176 18.6227 0.820216 18.493 0.820216 18.362C1.24589 13.9335 4.64864 10.5481 8.73918 10.5481C11.3239 10.5481 13.6812 11.9153 15.1855 14.1627C13.3205 15.1394 11.848 16.8004 10.9965 18.8503L1.27785 18.8504Z" fill="#F9F7F7"/>
<path d="M27 21.8786C27 22.0083 26.9668 22.1393 26.8696 22.2372C26.8045 22.3351 26.6728 22.4 26.5424 22.4H11.5877C11.4573 22.4 11.3257 22.3351 11.2605 22.2372C11.162 22.1393 11.1301 22.0096 11.1301 21.8786C11.2285 21.0315 11.3921 20.2507 11.6861 19.5016C11.7194 19.4685 11.7194 19.4367 11.7194 19.4036C12.5375 17.2543 14.1085 15.5947 16.0069 14.716C16.0401 14.716 16.0401 14.716 16.0401 14.6829C16.9886 14.2594 17.9704 14.0317 19.0505 14.0317C23.1384 14.0648 26.5745 17.4503 27.0002 21.8788L27 21.8786Z" fill="#F9F7F7"/>
</svg>
